<svg id="Graphic_Element" data-name="Graphic Element" xmlns="http://www.w3.org/2000/svg"
     xmlns:xlink="http://www.w3.org/1999/xlink" viewBox="0 0 1200 1200">
    <defs>
        <clipPath id="clip-path">
            <path d="M808.57,343.29C755.73,294.74,685.44,268,610.64,268s-145.09,26.73-197.92,75.28c-52.67,48.38-81.67,112.66-81.67,181s29,132.62,81.67,181c52.83,48.54,123.13,75.28,197.92,75.28s145.09-26.74,197.93-75.28a260.68,260.68,0,0,0,48-58.82c-1-.1-2-.19-3.08-.26-7.16-.47-14.45-1.71-19.11-6.21a37.61,37.61,0,0,0,5.07,10.43c3.93,5.6-5.26,10.89-9.15,5.34-8.83-12.59-10.27-29.71-6.52-44.32,4.88-19,19-33.6,36.8-41.17,6.21-2.64,11.61,6.49,5.35,9.15a60.14,60.14,0,0,0-19.33,12.85,45.83,45.83,0,0,1,14.61-1c6.28.42,12.62,1.12,18.9,1.88a237.27,237.27,0,0,0,10.16-68.85C890.24,456,861.23,391.67,808.57,343.29Z"
                  style="fill:none"/>
        </clipPath>
        <clipPath id="clip-path-2">
            <path d="M1110.37,459.13c-11.83-5.29-28-12.53-26.8-31.7.44-6.81,2.7-13.11,4.88-19.2,1.17-3.25,2.27-6.32,3-9.34,3-11.7-.06-21.45-8.72-27.46-17.2-11.93-44.13-4-61.87,8.43-46.3,32.44-77.36,54.34-118.25,85a7.29,7.29,0,0,1-4.55,1.46q2.48,10.49,4,21.19l.34-.12,93.23-27.06a7.3,7.3,0,0,1,4.07,14L906.56,501.4a7.23,7.23,0,0,1-2,.29,5.67,5.67,0,0,1-.71-.06q.71,7.81.94,15.72l92.91,26.21a7.3,7.3,0,0,1-2,14.33,7.57,7.57,0,0,1-2-.27l-89-25.11c-.28,8.49-1,16.93-2.07,25.27,30.09,18.26,57.5,33.26,86.52,49.14,14.33,7.84,29.15,15.94,44.65,24.65,18.58,10.43,44.57,14.85,60.72,1.21,9.36-7.92,12-20,7.31-33.15-1.13-3.16-2.58-6.3-4.12-9.62-2.83-6.16-5.77-12.53-7-19.64-3.27-19.74,11.06-28.9,22.59-36.26,5.66-3.62,11-7,14.1-11.24,11.31-15.33,10.56-40.85-1.6-54.61C1122.62,464.61,1116.67,462,1110.37,459.13Z"
                  style="fill:none"/>
        </clipPath>
        <clipPath id="clip-path-3">
            <path d="M171.47,434.84c0,.07,0,.15,0,.22v71.82s0,.07,0,.11c.77.27,1.51.55,2.24.83,12.3,4.84,23.5,12.89,32.84,22.18,9.7,9.65,17.65,21.33,21.9,34.41,3.51,10.81,4.84,24.14,1.42,35.41A30,30,0,0,1,243,602.18c6.72-3.83,13.52-7.64,20.12-11.34,12.94-7.24,26.32-14.73,39.19-22.49,5.89-3.55,11.26-6.92,16.41-10.27-1.12-8.29-1.8-16.68-2.09-25.12L250,555.42a7,7,0,0,1-2.34.39,7.3,7.3,0,0,1-2.33-14.22l71.19-24c.14-5.33.47-10.63.94-15.9l-.2,0a7.19,7.19,0,0,1-2-.28l-83.47-23.59a7.3,7.3,0,1,1,4-14.05l83.37,23.56q1.57-10.62,4-21.05a7.19,7.19,0,0,1-4.09-1.47c-19.92-15.13-40.5-29.65-58.23-42.07-2.91-2.05-7.8-5.63-12.53-9.09-3.84-2.8-7.76-5.67-10.62-7.72A112.74,112.74,0,0,1,171.47,434.84Z"
                  style="fill:none"/>
        </clipPath>
        <clipPath id="clip-path-4">
            <path d="M120.09,533.29a25.71,25.71,0,0,1,3.14-2,28.08,28.08,0,0,1,11.49-3.17c-2.47-5.49-2.49-11.63,2.15-16.9,5.1-5.79,12.37-7.59,19.79-7.27V435.07a111.32,111.32,0,0,1-20.38-2.9,6.4,6.4,0,0,1-.4,1.11c-5.37,11.66-15.72,17.78-24.85,23.19-9.69,5.73-18,10.68-20.67,21-2,7.73-4,22.38,4,33.69,4.09,5.77,10.24,10,16.74,14.52,2.26,1.57,4.6,3.19,6.86,4.88A6.68,6.68,0,0,1,120.09,533.29Z"
                  style="fill:none"/>
        </clipPath>
    </defs>
    <path d="M808.57,343.29C755.73,294.74,685.44,268,610.64,268s-145.09,26.73-197.92,75.28c-52.67,48.38-81.67,112.66-81.67,181s29,132.62,81.67,181c52.83,48.54,123.13,75.28,197.92,75.28s145.09-26.74,197.93-75.28a260.68,260.68,0,0,0,48-58.82c-1-.1-2-.19-3.08-.26-7.16-.47-14.45-1.71-19.11-6.21a37.61,37.61,0,0,0,5.07,10.43c3.93,5.6-5.26,10.89-9.15,5.34-8.83-12.59-10.27-29.71-6.52-44.32,4.88-19,19-33.6,36.8-41.17,6.21-2.64,11.61,6.49,5.35,9.15a60.14,60.14,0,0,0-19.33,12.85,45.83,45.83,0,0,1,14.61-1c6.28.42,12.62,1.12,18.9,1.88a237.27,237.27,0,0,0,10.16-68.85C890.24,456,861.23,391.67,808.57,343.29Z"
          style="fill:#ff73ef;stroke:#ff73ef;stroke-miterlimit:10;stroke-width:4px"/>
    <g style="clip-path:url(#clip-path)">
        <path d="M463.09,409.2c36.54-88.33,92.1-142.65,92.66-143.19L526.81,236c-2.5,2.4-61.57,59.84-101.61,155.71-23.61,56.52-35.67,114.74-35.86,173.05-.23,72.81,18.16,145.7,54.66,216.64l37.1-19.09c-33.24-64.61-50.07-130.71-50-196.45C431.1,513.2,441.88,460.5,463.09,409.2Z"
              style="fill:#ffe150"/>
        <path d="M584.16,395.52c35.44-96.2,90.45-154.79,91-155.37l-15.11-14.39,15.09,14.41L645,211.35c-2.46,2.57-60.72,64.28-99.33,168-22.7,61-33.88,124-33.21,187.16.84,78.88,20.21,158.15,57.58,235.6L607.6,784c-34.52-71.54-52.5-144.49-53.43-216.84C553.43,509.3,563.51,451.55,584.16,395.52Z"
              style="fill:#ffe150"/>
        <path d="M715.3,422.58c35.44-96.2,90.45-154.79,91-155.37l-15.11-14.39L776.1,238.41c-2.46,2.57-60.71,64.28-99.33,168-22.7,61-33.87,124-33.2,187.16.83,78.88,20.21,158.15,57.58,235.6l37.58-18.13c-34.52-71.54-52.49-144.49-53.42-216.83C684.56,536.37,694.65,478.61,715.3,422.58Z"
              style="fill:#ffe150"/>
        <path d="M832.89,471.22c38.32-75.57,94.8-122.94,95.37-123.41L915,331.74l-13.29-16.09c-2.55,2.1-62.91,52.48-105.31,135.34-25.17,49.2-38.75,99.67-40.36,150-2,63,14.81,125.58,50,185.94l36-21c-31-53.22-45.95-108-44.36-162.79C799,559.15,810.81,514.77,832.89,471.22Z"
              style="fill:#ffe150"/>
    </g>
    <path d="M184.91,419.77a6.29,6.29,0,0,1,1.5,0A99.67,99.67,0,1,0,66.06,296.91a98.94,98.94,0,0,0,9.68,75.65A100.56,100.56,0,0,0,87,388.44c-12.55-24.66-13.84-56.5-2.8-87C90.52,284,105.81,266,121.37,257.79c24.84-13.16,60-11.73,85.46,3.46,28.17,16.8,41.22,49.7,31.73,80-6.84,21.85-24.37,39.34-46.9,46.8-20.6,6.8-41.75,3.92-58-7.92C119.55,369.91,111.8,352,112.9,332.32c1.14-20.4,11.4-38,27.44-47.17,15.41-8.76,34.74-6.21,49.25,6.52C198,299,205.7,313,202.8,326.42c-3.23,14.85-14,25.91-26.75,27.51-10.48,1.32-20.16-4.14-25.21-14.25-3.32-6.63-2.14-15,.5-20.28,2.22-4.49,5.59-7.36,9.48-8.09a6.26,6.26,0,0,1,2.68,12.22c-1.39,1.19-3.24,7-1.46,10.56,2.72,5.45,7.15,8.08,12.45,7.42,6.25-.78,13.65-6.58,16.07-17.75,1.75-8.05-3.32-17.5-9.23-22.68-10.43-9.15-24.1-11.14-34.8-5-12.33,7-20.23,20.84-21.13,37-.86,15.44,5,29.28,15.6,37,13,9.44,30,11.68,46.73,6.15,18.71-6.19,33.25-20.64,38.88-38.65,7.75-24.76-3-51.71-26.19-65.52-21.92-13.07-52-14.37-73.2-3.16-12.83,6.8-26,22.31-31.26,36.9-11.86,32.72-8,66.93,10.1,89.27C123.06,416,150.33,424.57,184.91,419.77Z"
          style="fill:#fff;stroke:#fff;stroke-miterlimit:10;stroke-width:4px"/>
    <path d="M164.56,318.18l20.84-99.64s45.66,14.36,58,38.1Z"
          style="fill:#e22727;stroke:#e22727;stroke-miterlimit:10;stroke-width:3.42827910447573px"/>
    <path d="M164.42,318.14,66.26,274.47s19.29-35.13,44.4-44.4Z"
          style="fill:#e22727;stroke:#e22727;stroke-miterlimit:10;stroke-width:3.42827910447573px"/>
    <path d="M162.42,321.09l-80.9,71.34S56.16,361.32,60,334.84Z"
          style="fill:#e22727;stroke:#e22727;stroke-miterlimit:10;stroke-width:3.42827910447573px"/>
    <path d="M164,317.94l56.27,93.92s-35.84,21.93-61.75,13.87Z"
          style="fill:#e22727;stroke:#e22727;stroke-miterlimit:10;stroke-width:3.47588737147767px"/>
    <path d="M167.72,319.64,268,302s7.91,43.1-9.52,63.41Z"
          style="fill:#e22727;stroke:#e22727;stroke-miterlimit:10;stroke-width:3.42827910447573px"/>
    <path d="M240.91,616.74A7.23,7.23,0,0,1,238,614.4a25.53,25.53,0,0,0-11.22-3.53c-7.63-.85-16,.53-23.78,1.14a44.63,44.63,0,0,1,10.55-7.58,41.31,41.31,0,0,1,4.17-2,5.76,5.76,0,0,1,.61-2.55c5.8-11.75,2.1-28.88-3.35-40.11-5.67-11.66-14.4-21.62-24.51-29.64-9.53-7.57-21.65-14.93-34.13-15.38-4.21-.16-12.35.85-12.44,6.52-.07,4.72,5.18,8.54,8.88,10.42l.17.1a67.67,67.67,0,0,1,14.32,8.49c4.93,3.78,10.67,8.22,13.71,13.77,4.38,8,1.83,16.68-4.19,22a6,6,0,0,1,.44,1.24c.64,2.82,0,5.49.11,8.22.11,3.24.34,6.52.69,9.82.49,4.65,1.22,9.34,2.16,14a41.83,41.83,0,0,0,1,5.34c.6,1.8,1.13,4.9,2.16,6.51A133.35,133.35,0,0,1,175,606.13q-1.66-3.54-3.12-7.16c-.14-.37-.29-.74-.44-1.12a18,18,0,0,1-7,6.16c1.43,8.47-.51,17.83-7.68,23.18C148,633.8,134,633.07,124,629.75c-6.6-2.21-3.75-12.68,2.88-10.46s15.77,3.38,22.23,0c4.41-2.34,5.36-7.31,4.85-12-.08-.19-.16-.38-.23-.59-2.68-7.76-9.76-10.24-17.22-11.65a158.28,158.28,0,0,0-16-2.46c-4.93-.41-10.91-.62-15.12,2.44-3.25,2.37-4,5.76-4.94,9.38-2.26,8.46-5,15.83-1.27,24.4,4.8,11.14,15.18,19.6,25.53,25.36,9.51,5.29,21.48,9.7,32.51,7.65l.34,0a31.31,31.31,0,0,1,10.7-17.21c5.27-4.42,12.9,3.14,7.6,7.59-11.56,9.71-10.64,24.27-.25,34.61,11.09,11,27.25,11.63,38.75.94a6.2,6.2,0,0,1,1-.78,93.6,93.6,0,0,1-16.58-16.11,30.41,30.41,0,0,0,.7,8.72,4.67,4.67,0,0,1-3.52,5.57,5.15,5.15,0,0,1-1,.11,4.66,4.66,0,0,1-4.53-3.63c-2.93-13,.76-26.34,10.38-37.66,8.9-10.48,22.07-18,30.66-17.47a4.65,4.65,0,1,1-.56,9.29,11.51,11.51,0,0,0-3.91.68,56.38,56.38,0,0,0,12.74,14.71,52.22,52.22,0,0,0,6.62,3.69c2.51-12.14,3.17-26-3.67-36A17.57,17.57,0,0,0,240.91,616.74Z"
          style="fill:#fff;stroke:#fff;stroke-miterlimit:10;stroke-width:4px"/>
    <path d="M127.76,582.65c11.73,1.81,23.74,3.69,31.2,12,9.25-4.2,4.3-14.18-1.81-18.52-6.71-4.78-15.86-7.77-23.73-10a25.51,25.51,0,0,0-18.21,2.27,16.91,16.91,0,0,0-9.29,14.67C112.71,581.11,120.62,581.55,127.76,582.65Z"
          style="fill:#fff;stroke:#fff;stroke-miterlimit:10;stroke-width:4px"/>
    <path d="M513.8,877a162.18,162.18,0,0,1,8.87,19.72,6.09,6.09,0,0,1-3.6,7.85,5.89,5.89,0,0,1-2.13.39,6.1,6.1,0,0,1-5.72-4,147.2,147.2,0,0,0-11.77-24.51h0c-12.22-20.32-28.23-35.37-46.31-43.53-18.61-8.39-38.77-6-52.91,5.43,13.6,1.23,26.82,6.38,39.48,15.41,13.74,9.81,26.72,24.31,37.54,41.94,21.08,34.37,37.25,58.23,66,72.72,12.27-16.14,15.71-41.79,8.08-62.26C545.51,890.41,532.62,882.74,513.8,877Z"
          style="fill:#fff;stroke:#fff;stroke-miterlimit:10;stroke-width:4px"/>
    <path d="M755.54,902.21a120.09,120.09,0,0,0-13.94-1.88q-6.29-.48-12.49-.53c-2.84,0-7.57.13-11.2.29a88.6,88.6,0,0,1-11,3.09l-1.4.32c-9.58,2.25-17,5.31-22.26,12.94a33.12,33.12,0,0,0-5.78,23.23c1.74,12.47,11.63,27.87,34.16,33.68,20.57,5.29,43.32,3.24,64-5.78a96.24,96.24,0,0,0,44.77-40.07,125.36,125.36,0,0,0,16.6-58.16c1-23.3-3.56-40.56-13.79-52.78a44.91,44.91,0,0,0-47.48-13.92,57.43,57.43,0,0,0-10.23,5,73.82,73.82,0,0,1-12.45,6c2.48,7.19,8.87,25.88-8.88,37a7.58,7.58,0,0,1-.23.94,82,82,0,0,0-2.13,8.29l-.33,1.5c-.26,1.15-.51,2.31-.76,3.49-1.64,7.64-3.5,16.29-7.85,23.73-.3.51-.62,1-.95,1.46a64.67,64.67,0,0,1,17.35,7.65A58.71,58.71,0,0,1,755.54,902.21Z"
          style="fill:#fff;stroke:#fff;stroke-miterlimit:10;stroke-width:4px"/>
    <path d="M118.43,555.72a34.27,34.27,0,0,1,20,.72c9.49,3.31,20.38,6.4,28,13.31,3-1,5.6-2.93,5.86-6.44.34-4.51-3.52-7.41-6.53-10.13-5.14-4.64-11-9-17.51-11.71a7,7,0,0,1-.88-.35,37,37,0,0,0-6.29-1.87C128.57,536.79,121.56,545.28,118.43,555.72Z"
          style="fill:#fff;stroke:#fff;stroke-miterlimit:10;stroke-width:4px"/>
    <path d="M552.34,408c-5.48,0-10.11,2.91-13.75,6.53,7.67,1.26,14.3,11.35,18.06,26L538,448.88l21.08,5a122.89,122.89,0,0,1,.86,14.64,113.39,113.39,0,0,1-3.16,27.29q2.85.72,5.61,1.58c1.88-.79,3.78-1.53,5.7-2.19a118.77,118.77,0,0,1-2.76-25.78c0-15.88,3-31.34,8.62-44C568,414.29,560.27,408,552.34,408Z"
          style="fill:#fff;stroke:#fff;stroke-miterlimit:10;stroke-width:4px"/>
    <path d="M912.89,721.7c-1.26,10.59,7,18.51,14.7,24.76,3.25,2.73,6.65,5,10,7.74a48.65,48.65,0,0,1-10.4-1,5.91,5.91,0,0,1-2.07,2.57c-9.68,7-16.32,15.22-19.61,26.79a64.84,64.84,0,0,0-1.82,27.32c2.63,17.31,13.09,31.82,29.9,35.88-.59-7.51-.26-15-.9-22.53s10.69-7.22,11.52,0l.33,2.94a5.45,5.45,0,0,1-.09,2c.08,3.59,0,7.18.14,10.77.13,3.3-.5,9.85,2.51,11.68,5.88,3.58,14.78,1.6,19.06-3.3s4-9.82,3.56-15.77a80.81,80.81,0,0,0-1-8.34c-.23-1.2-.69-2.45-.82-3.66q0-.25-.06-.45c-4.39-3.23-1.27-11.79,5.11-10.15,7.62,2,7.69,15.49,8.23,21.51s.26,11.69-1.75,16.88c6.45-1.09,12.69-3.78,17.06-8.77,6.42-7.37,6.08-17.21,3.56-26.1-2-7.16,9.1-10.19,11.11-3.07a47.74,47.74,0,0,1,1.6,19.77c13.57-6.75,15.35-24.76,13.58-38.52-1.84-14.3-7.83-33.35-20.75-41.54l-.19-.13a32,32,0,0,1-19.74,5.19c-7-.39-7-11.27,0-10.89,15.32.85,24.47-10.92,23.9-25.64-.61-15.89-12.39-27.3-28.24-27.29a5.83,5.83,0,0,1-1.36-.16,91.76,91.76,0,0,1,1.35,23.43,30.91,30.91,0,0,0,5.55-7,4.71,4.71,0,1,1,8.14,4.76c-6.8,11.62-18.77,19-33.72,20.72a58.84,58.84,0,0,1-6.77.39c-11.68,0-23-3.35-28-8.64a4.71,4.71,0,0,1,6.84-6.49,11.58,11.58,0,0,0,3.37,2.21,37.32,37.32,0,0,0-2.12-26.69C924.51,700.05,914.61,709.87,912.89,721.7ZM957,826.94c0,.32.18.87-.33.94a.45.45,0,0,1-.28-.06L951.89,825c-4.29-2.8-8.92-6-13.12-8.88-2.83-2-10.17-7.2-12.89-9.18l-4.26-3.13a.44.44,0,0,1,.15-.77l.44-.12C938.19,798.84,954.91,810.8,957,826.94Z"
          style="fill:#fff;stroke:#fff;stroke-miterlimit:10;stroke-width:4px"/>
    <path d="M622.58,454.7a131.21,131.21,0,0,1,1.16,14.71,121.41,121.41,0,0,1-1.07,16.09A109.92,109.92,0,0,1,645,489.78,104.37,104.37,0,0,0,647.27,468c0-16.73-3.65-32.35-10.29-44-3.42-6-10.69-16-20.87-16-5.9,0-10.8,3.36-14.56,7.36,7.82.64,14.65,10.46,18.6,25l-20,9Z"
          style="fill:#fff;stroke:#fff;stroke-miterlimit:10;stroke-width:4px"/>
    <path d="M380.34,499.67h-.18a10.25,10.25,0,0,0-7.73,4.06h0c-5.18,6.15-5.54,16.56-.78,22.73a9.44,9.44,0,0,0,7.19,4H379a10.25,10.25,0,0,0,7.74-4.06c5.18-6.15,5.54-16.56.78-22.73A9.46,9.46,0,0,0,380.34,499.67Z"
          style="fill:#fff;stroke:#fff;stroke-miterlimit:10;stroke-width:4px"/>
    <path d="M458.73,366.11c-1.92,0-5.36.56-11.21,3-16.59,7-42.19,32.79-56.3,64-5.89,13-6.39,29.88,3,35.58,5.93,3.61,13.93.13,21.41-9.33,12.27-15.51,22-33.88,31.31-51.65q2-3.81,4-7.61c5.89-11.09,9.73-21.27,10.52-27.91.48-3.94-.26-5.43-.58-5.67A4,4,0,0,0,458.73,366.11Z"
          style="fill:#fff;stroke:#fff;stroke-miterlimit:10;stroke-width:4px"/>
    <path d="M171.47,434.84c0,.07,0,.15,0,.22v71.82s0,.07,0,.11c.77.27,1.51.55,2.24.83,12.3,4.84,23.5,12.89,32.84,22.18,9.7,9.65,17.65,21.33,21.9,34.41,3.51,10.81,4.84,24.14,1.42,35.41A30,30,0,0,1,243,602.18c6.72-3.83,13.52-7.64,20.12-11.34,12.94-7.24,26.32-14.73,39.19-22.49,5.89-3.55,11.26-6.92,16.41-10.27-1.12-8.29-1.8-16.68-2.09-25.12L250,555.42a7,7,0,0,1-2.34.39,7.3,7.3,0,0,1-2.33-14.22l71.19-24c.14-5.33.47-10.63.94-15.9l-.2,0a7.19,7.19,0,0,1-2-.28l-83.47-23.59a7.3,7.3,0,1,1,4-14.05l83.37,23.56q1.57-10.62,4-21.05a7.19,7.19,0,0,1-4.09-1.47c-19.92-15.13-40.5-29.65-58.23-42.07-2.91-2.05-7.8-5.63-12.53-9.09-3.84-2.8-7.76-5.67-10.62-7.72A112.74,112.74,0,0,1,171.47,434.84Z"
          style="fill:#f249e6;stroke:#f249e6;stroke-miterlimit:10;stroke-width:4px"/>
    <path d="M120.09,533.29a25.71,25.71,0,0,1,3.14-2,28.08,28.08,0,0,1,11.49-3.17c-2.47-5.49-2.49-11.63,2.15-16.9,5.1-5.79,12.37-7.59,19.79-7.27V435.07a111.32,111.32,0,0,1-20.38-2.9,6.4,6.4,0,0,1-.4,1.11c-5.37,11.66-15.72,17.78-24.85,23.19-9.69,5.73-18,10.68-20.67,21-2,7.73-4,22.38,4,33.69,4.09,5.77,10.24,10,16.74,14.52,2.26,1.57,4.6,3.19,6.86,4.88A6.68,6.68,0,0,1,120.09,533.29Z"
          style="fill:#f249e6;stroke:#f249e6;stroke-miterlimit:10;stroke-width:4px"/>
    <path d="M1110.37,459.13c-11.83-5.29-28-12.53-26.8-31.7.44-6.81,2.7-13.11,4.88-19.2,1.17-3.25,2.27-6.32,3-9.34,3-11.7-.06-21.45-8.72-27.46-17.2-11.93-44.13-4-61.87,8.43-46.3,32.44-77.36,54.34-118.25,85a7.29,7.29,0,0,1-4.55,1.46q2.48,10.49,4,21.19l.34-.12,93.23-27.06a7.3,7.3,0,0,1,4.07,14L906.56,501.4a7.23,7.23,0,0,1-2,.29,5.67,5.67,0,0,1-.71-.06q.71,7.81.94,15.72l92.91,26.21a7.3,7.3,0,0,1-2,14.33,7.57,7.57,0,0,1-2-.27l-89-25.11c-.28,8.49-1,16.93-2.07,25.27,30.09,18.26,57.5,33.26,86.52,49.14,14.33,7.84,29.15,15.94,44.65,24.65,18.58,10.43,44.57,14.85,60.72,1.21,9.36-7.92,12-20,7.31-33.15-1.13-3.16-2.58-6.3-4.12-9.62-2.83-6.16-5.77-12.53-7-19.64-3.27-19.74,11.06-28.9,22.59-36.26,5.66-3.62,11-7,14.1-11.24,11.31-15.33,10.56-40.85-1.6-54.61C1122.62,464.61,1116.67,462,1110.37,459.13Z"
          style="fill:#f249e6;stroke:#f249e6;stroke-miterlimit:10;stroke-width:4px"/>
    <path d="M511.4,863.49v0h.06Z" style="fill:#ff73ef"/>
    <path d="M697.63,783.2c.16.27.32.54.5.8a5.86,5.86,0,0,1,0-.94Z" style="fill:#ff73ef"/>
    <path d="M700,529.86c-12.19-2.33-17.41-14.6-21.85-25.3a31.34,31.34,0,0,0-1.79,10.77A27.3,27.3,0,0,0,684,534.69c-3.86,11.31-19.31,24.78-44.64,28.17-20.61,2.75-38.92-3.39-52.93-17.76a6.26,6.26,0,1,0-9,8.74C591.71,568.47,609.61,576,629.72,576a85.16,85.16,0,0,0,11.27-.77c21.34-2.85,45.54-14.37,53.83-33.89a29.16,29.16,0,0,0,26-4.36c6.18-4.42,11-12.24,9.73-19.87C724.09,527.18,711.08,532,700,529.86Z"
          style="fill:#090100"/>
    <path d="M581.61,504.41a7.36,7.36,0,0,0,2.45-.44A74.81,74.81,0,0,1,613,499.49h.27a96.06,96.06,0,0,1,34.28,6.34,7.21,7.21,0,0,0,9.47-4.66,115.28,115.28,0,0,0,4.7-33.17c0-41.75-20-74.45-45.58-74.45-12.54,0-23.73,7.87-31.89,20.8-8.38-13.32-19.69-20.8-31.88-20.8-25.56,0-45.59,32.7-45.59,74.45a117.76,117.76,0,0,0,3.5,28.85,7.18,7.18,0,0,0,5.31,5.24c2.19.52,4.47,1.17,7,2a7.35,7.35,0,0,0,1.86.34,95.34,95.34,0,0,1,23.39,4.09l.67.17a97.39,97.39,0,0,1,12,3.24,7.23,7.23,0,0,0,5.36-.27,71.62,71.62,0,0,1,8.25-3.24,7.52,7.52,0,0,0,1.13-.48c1.39-.73,2.85-1.44,4.32-2.1A7.14,7.14,0,0,0,581.61,504.41Zm19.94-89.07c3.76-4,8.66-7.36,14.56-7.36,10.18,0,17.45,10.06,20.87,16,6.64,11.63,10.29,27.25,10.29,44A104.37,104.37,0,0,1,645,489.78a109.92,109.92,0,0,0-22.37-4.28,121.41,121.41,0,0,0,1.07-16.09,131.21,131.21,0,0,0-1.16-14.71l-22.45-5.31,20-9C616.2,425.8,609.37,416,601.55,415.34Zm-33.43,79.85c-1.92.66-3.82,1.4-5.7,2.19q-2.76-.86-5.61-1.58A113.39,113.39,0,0,0,560,468.51a122.89,122.89,0,0,0-.86-14.64l-21.08-5,18.62-8.39c-3.76-14.63-10.39-24.72-18.06-26,3.64-3.62,8.27-6.53,13.75-6.53,7.93,0,15.7,6.31,21.64,17.44-5.57,12.65-8.62,28.11-8.62,44A118.77,118.77,0,0,0,568.12,495.19Z"
          style="fill:#090100"/>
    <path d="M922.21,802.91l-.44.12a.44.44,0,0,0-.15.77l4.26,3.13c2.72,2,10.06,7.18,12.89,9.18,4.2,2.89,8.83,6.08,13.12,8.88l4.48,2.83a.45.45,0,0,0,.28.06c.51-.07.36-.62.33-.94C954.91,810.8,938.19,798.84,922.21,802.91Z"
          style="fill:#090100"/>
    <path d="M1116.33,445.8c-13-5.83-18.71-9.25-18.18-17.43.3-4.76,2.12-9.84,4-15.21,1.22-3.42,2.49-7,3.44-10.61,4.54-17.53-.89-33.65-14.53-43.12-9.42-6.53-22.13-9.44-35.8-8.17-14.33,1.32-29.13,7.08-42.78,16.64-44.84,31.41-77.35,54.33-118,84.8-13.31-45-39.2-86.31-76.06-120.17-55.54-51-129.34-79.13-207.81-79.13s-152.26,28.1-207.8,79.13c-36.77,33.78-62.63,74.94-76,119.86-19.8-15-40.1-29.33-57.63-41.62-2.79-1.95-7.62-5.49-12.29-8.9-3.13-2.3-6.32-4.63-9-6.56a112.14,112.14,0,1,0-124.71,32.92c-3.72,7.43-11.21,11.88-19.13,16.57-10.74,6.35-22.91,13.56-26.91,29.38-4.37,17.26-2.2,33.19,6.09,44.87,5.48,7.7,12.9,12.84,20.08,17.81,2.25,1.56,4.38,3,6.44,4.58a6.7,6.7,0,0,0,2.23,1.09,48.7,48.7,0,0,0-5.42,16.15,5.73,5.73,0,0,0,.15,2.6,28.37,28.37,0,0,0-11.69,25.2,5.56,5.56,0,0,0,.83,2.63,21.78,21.78,0,0,0-4,6.06c-2,4.46-2.82,9.55-4.08,14.25A35.52,35.52,0,0,0,86.8,625c2.51,14.52,14.06,26.26,25.72,34.32,12.69,8.77,28.88,15.17,44.53,13.37a37.3,37.3,0,0,0,11,21.62c15.34,15.23,38.17,15.61,54,.95a5.06,5.06,0,0,0,1.6-2.76c15.8,9.81,34.24,15.71,52.56,18.27,16.75,2.35,34.85,1.23,50.68-5,15.53-6.16,28.69-16.56,41.05-27.6a3.43,3.43,0,0,0,.33-.33,280.89,280.89,0,0,0,34.66,38.23,298.12,298.12,0,0,0,117,66c-13.59,22.45-18.35,48.53-20.14,73.15-11.82-15-25.94-26.46-41.5-33.48-28.54-12.88-60.22-4.92-77,19.35l-.08.12a.43.43,0,0,1,0,.07c-9.88,14.37-13.58,32.31-10.41,50.54a81.54,81.54,0,0,0,24.27,45.09c11.66,11,26.24,19.55,47.26,27.76,18.08,7.06,59.15,18.2,88.76,18.2a88.4,88.4,0,0,0,12-.74,6.1,6.1,0,0,0,3.16-1.44h.1a6.1,6.1,0,0,0,4.63-2.12c16.44-19.1,21.51-51.37,12.05-76.73A51.18,51.18,0,0,0,544,877.44a160.44,160.44,0,0,1,6.75-19.38c11.85-28.14,24.74-45.38,47.31-63.14q6.27.26,12.59.26,13.05,0,25.89-1c16.27,31.77,54.16,47,93.8,58.11-.4,1.61-.76,3.22-1.1,4.79l-.33,1.47c-.26,1.18-.52,2.38-.78,3.59-1.51,7-3.07,14.27-6.37,19.92-1.66,2.83-4.68,4.63-8.28,6l-.81,0a5.46,5.46,0,0,0-2.61.67,2.38,2.38,0,0,0-.56.53c-1.79.49-3.65.92-5.49,1.35l-1.44.33c-10.3,2.42-21.93,6.48-30,18.23a46,46,0,0,0-7.93,32.32c2.92,20.9,20.09,38.33,43.75,44.43a105.61,105.61,0,0,0,26.34,3.28,115.85,115.85,0,0,0,46.1-9.72A109.13,109.13,0,0,0,831.62,934,138.39,138.39,0,0,0,850,869.86c1.08-26.66-4.42-46.81-16.81-61.61a58,58,0,0,0-61.3-18,67.59,67.59,0,0,0-12.7,6.05c-6.83,3.86-12.74,7.2-18.55,5.46-4.93-1.48-10.14-5.17-14.74-8.43l-.21-.15a100.57,100.57,0,0,1-15.76-13.79,297.46,297.46,0,0,0,108.53-63.38,274.26,274.26,0,0,0,53.64-67.29l1.93.33c8,1.38,16.49,2,24.16,4.73,12.49,4.37,22.71,15.46,29.67,26.33a85.27,85.27,0,0,1,4.93,8.77,41.43,41.43,0,0,0-27,15.41c-8.79,11.2-9.52,27.08.78,37.74a35.72,35.72,0,0,0,8.77,6.76c-9.75,7.84-16.83,17.08-20.61,29.55a77,77,0,0,0-2.14,34.54c3.94,24.2,20.9,42.24,45.36,45.12a13.5,13.5,0,0,0,4,2.79c9.38,4.41,20.87,3.76,29.07-2.45a5.3,5.3,0,0,0,3.46,1c11.52-.58,23.23-4.52,30.88-13.55a32,32,0,0,0,3.24-4.61,5.05,5.05,0,0,0,4.21.28c21.11-7.07,27.32-29.53,25.16-49.79-1.92-18-8.93-39.61-24.19-50.91a37.45,37.45,0,0,0,6.66-23.18c-.83-21.76-17.24-38.19-39.13-38.18a5.1,5.1,0,0,0-3.53,1.29A137.11,137.11,0,0,0,957.9,639.3c-15.6-22.32-37-38.15-63.25-43.92q3.2-10.9,5.4-22.09c28.42,17.08,54.54,31.37,82.09,46.44,14.3,7.82,29.08,15.91,44.51,24.57C1040.56,652.11,1055,656,1068.4,656c13.58,0,26-4,35.54-12.09,14.07-11.89,18.42-30.3,11.63-49.23-1.34-3.76-3-7.34-4.59-10.81-2.55-5.52-5-10.74-5.81-15.91-1.08-6.54-.87-10.76,16-21.57,6.53-4.17,13.29-8.49,18-14.87,15.29-20.75,14.19-54.15-2.42-72.95C1131.47,452.56,1123.77,449.12,1116.33,445.8ZM732.92,888.55c4.35-7.44,6.21-16.09,7.85-23.73.25-1.18.5-2.34.76-3.49l.33-1.5a82,82,0,0,1,2.13-8.29,7.58,7.58,0,0,0,.23-.94c17.75-11.09,11.36-29.78,8.88-37a73.82,73.82,0,0,0,12.45-6,57.43,57.43,0,0,1,10.23-5,44.91,44.91,0,0,1,47.48,13.92C833.49,828.78,838,846,837.05,869.34a125.36,125.36,0,0,1-16.6,58.16,96.24,96.24,0,0,1-44.77,40.07c-20.72,9-43.47,11.07-64,5.78-22.53-5.81-32.42-21.21-34.16-33.68a33.12,33.12,0,0,1,5.78-23.23c5.23-7.63,12.68-10.69,22.26-12.94l1.4-.32a88.6,88.6,0,0,0,11-3.09c3.63-.16,8.36-.31,11.2-.29q6.2.06,12.49.53a120.09,120.09,0,0,1,13.94,1.88,58.71,58.71,0,0,0-6.22-4.55A64.67,64.67,0,0,0,732,890C732.3,889.54,732.62,889.06,732.92,888.55ZM248.33,413.65c4.73,3.46,9.62,7,12.53,9.09,17.73,12.42,38.31,26.94,58.23,42.07a7.19,7.19,0,0,0,4.09,1.47q-2.44,10.41-4,21.05l-83.37-23.56a7.3,7.3,0,1,0-4,14.05l83.47,23.59a7.19,7.19,0,0,0,2,.28l.2,0c-.47,5.27-.8,10.57-.94,15.9l-71.19,24a7.3,7.3,0,0,0,2.33,14.22,7,7,0,0,0,2.34-.39L316.61,533c.29,8.44,1,16.83,2.09,25.12-5.15,3.35-10.52,6.72-16.41,10.27-12.87,7.76-26.25,15.25-39.19,22.49-6.6,3.7-13.4,7.51-20.12,11.34a30,30,0,0,0-13.11-2.36c3.42-11.27,2.09-24.6-1.42-35.41-4.25-13.08-12.2-24.76-21.9-34.41-9.34-9.29-20.54-17.34-32.84-22.18-.73-.28-1.47-.56-2.24-.83,0,0,0-.08,0-.11V435.06c0-.07,0-.15,0-.22a112.74,112.74,0,0,0,66.24-28.91C240.57,408,244.49,410.85,248.33,413.65ZM106.06,395C88,372.68,84.1,338.47,96,305.75c5.28-14.59,18.43-30.1,31.26-36.9,21.18-11.21,51.28-9.91,73.2,3.16,23.17,13.81,33.94,40.76,26.19,65.52-5.63,18-20.17,32.46-38.88,38.65C171,381.71,154,379.47,141,370c-10.63-7.73-16.46-21.57-15.6-37,.9-16.14,8.8-30,21.13-37,10.7-6.1,24.37-4.11,34.8,5,5.91,5.18,11,14.63,9.23,22.68-2.42,11.17-9.82,17-16.07,17.75-5.3.66-9.73-2-12.45-7.42-1.78-3.56.07-9.37,1.46-10.56a6.26,6.26,0,0,0-2.68-12.22c-3.89.73-7.26,3.6-9.48,8.09-2.64,5.32-3.82,13.65-.5,20.28,5,10.11,14.73,15.57,25.21,14.25,12.77-1.6,23.52-12.66,26.75-27.51C205.7,313,198,299,189.59,291.67c-14.51-12.73-33.84-15.28-49.25-6.52-16,9.13-26.3,26.77-27.44,47.17-1.1,19.71,6.65,37.59,20.74,47.83,16.27,11.84,37.42,14.72,58,7.92,22.53-7.46,40.06-24.95,46.9-46.8,9.49-30.32-3.56-63.22-31.73-80-25.48-15.19-60.62-16.62-85.46-3.46C105.81,266,90.52,284,84.19,301.48c-11,30.46-9.75,62.3,2.8,87a100.56,100.56,0,0,1-11.25-15.88,99.71,99.71,0,0,1,86.31-149.2,100.27,100.27,0,0,1,26.3,3.53,99.71,99.71,0,0,1-1.94,192.86,6.29,6.29,0,0,0-1.5,0C150.33,424.57,123.06,416,106.06,395Zm5,130.69c-6.5-4.5-12.65-8.75-16.74-14.52-8-11.31-6-26-4-33.69,2.62-10.35,11-15.3,20.67-21,9.13-5.41,19.48-11.53,24.85-23.19a6.4,6.4,0,0,0,.4-1.11,111.32,111.32,0,0,0,20.38,2.9V504c-7.42-.32-14.69,1.48-19.79,7.27-4.64,5.27-4.62,11.41-2.15,16.9a28.08,28.08,0,0,0-11.49,3.17,25.71,25.71,0,0,0-3.14,2,6.68,6.68,0,0,0-2.13-2.7C115.7,528.9,113.36,527.28,111.1,525.71Zm30,13.54a37,37,0,0,1,6.29,1.87,7,7,0,0,0,.88.35c6.49,2.71,12.37,7.07,17.51,11.71,3,2.72,6.87,5.62,6.53,10.13-.26,3.51-2.85,5.45-5.86,6.44-7.64-6.91-18.53-10-28-13.31a34.27,34.27,0,0,0-20-.72C121.56,545.28,128.57,536.79,141.07,539.25Zm-25.86,29.2a25.51,25.51,0,0,1,18.21-2.27c7.87,2.21,17,5.2,23.73,10,6.11,4.34,11.06,14.32,1.81,18.52-7.46-8.34-19.47-10.22-31.2-12-7.14-1.1-15.05-1.54-21.84.47A16.91,16.91,0,0,1,115.21,568.45Zm131.17,86.36a52.22,52.22,0,0,1-6.62-3.69A56.38,56.38,0,0,1,227,636.41a11.51,11.51,0,0,1,3.91-.68,4.65,4.65,0,1,0,.56-9.29c-8.59-.51-21.76,7-30.66,17.47-9.62,11.32-13.31,24.7-10.38,37.66A4.66,4.66,0,0,0,195,685.2a5.15,5.15,0,0,0,1-.11,4.67,4.67,0,0,0,3.52-5.57,30.41,30.41,0,0,1-.7-8.72,93.6,93.6,0,0,0,16.58,16.11,6.2,6.2,0,0,0-1,.78c-11.5,10.69-27.66,10.09-38.75-.94-10.39-10.34-11.31-24.9.25-34.61,5.3-4.45-2.33-12-7.6-7.59a31.31,31.31,0,0,0-10.7,17.21l-.34,0c-11,2.05-23-2.36-32.51-7.65C114.36,648.4,104,639.94,99.18,628.8c-3.7-8.57-1-15.94,1.27-24.4,1-3.62,1.69-7,4.94-9.38,4.21-3.06,10.19-2.85,15.12-2.44a158.28,158.28,0,0,1,16,2.46c7.46,1.41,14.54,3.89,17.22,11.65.07.21.15.4.23.59.51,4.67-.44,9.64-4.85,12-6.46,3.41-15.62,2.23-22.23,0s-9.48,8.25-2.88,10.46c10,3.32,23.92,4,32.78-2.56,7.17-5.35,9.11-14.71,7.68-23.18a18,18,0,0,0,7-6.16c.15.38.3.75.44,1.12q1.46,3.62,3.12,7.16a133.35,133.35,0,0,0,8.36,15.12c-1-1.61-1.56-4.71-2.16-6.51a41.83,41.83,0,0,1-1-5.34c-.94-4.7-1.67-9.39-2.16-14-.35-3.3-.58-6.58-.69-9.82-.1-2.73.53-5.4-.11-8.22a6,6,0,0,0-.44-1.24c6-5.31,8.57-14,4.19-22-3-5.55-8.78-10-13.71-13.77A67.67,67.67,0,0,0,153,531.83l-.17-.1c-3.7-1.88-8.95-5.7-8.88-10.42.09-5.67,8.23-6.68,12.44-6.52,12.48.45,24.6,7.81,34.13,15.38,10.11,8,18.84,18,24.51,29.64,5.45,11.23,9.15,28.36,3.35,40.11a5.76,5.76,0,0,0-.61,2.55,41.31,41.31,0,0,0-4.17,2A44.63,44.63,0,0,0,203,612c7.82-.61,16.15-2,23.78-1.14A25.53,25.53,0,0,1,238,614.4a7.23,7.23,0,0,0,2.91,2.34,17.57,17.57,0,0,1,1.8,2.1C249.55,628.83,248.89,642.67,246.38,654.81Zm33,6.43A80,80,0,0,1,250,656.35a40.19,40.19,0,0,0,9.3-31.58,32,32,0,0,0-4.51-12.49c5.17-2.93,10.37-5.85,15.46-8.69,13-7.3,26.52-14.85,39.59-22.73,4-2.44,7.84-4.79,11.5-7.11a252.07,252.07,0,0,0,18.54,56.82C321.55,644.15,303.5,661,279.38,661.24Zm232,202.25.06,0h-.06Zm40,42.63c7.63,20.47,4.19,46.12-8.08,62.26-28.79-14.49-45-38.35-66-72.72-10.82-17.63-23.8-32.13-37.54-41.94-12.66-9-25.88-14.18-39.48-15.41,14.14-11.39,34.3-13.82,52.91-5.43,18.08,8.16,34.09,23.21,46.31,43.53h0a147.2,147.2,0,0,1,11.77,24.51,6.1,6.1,0,0,0,5.72,4,5.89,5.89,0,0,0,2.13-.39,6.09,6.09,0,0,0,3.6-7.85A162.18,162.18,0,0,0,513.8,877C532.62,882.74,545.51,890.41,551.37,906.12ZM697.63,783.2l.45-.14a5.86,5.86,0,0,0,0,.94C698,783.74,697.79,783.47,697.63,783.2ZM880.08,593.14c-6.28-.76-12.62-1.46-18.9-1.88a45.83,45.83,0,0,0-14.61,1,60.14,60.14,0,0,1,19.33-12.85c6.26-2.66.86-11.79-5.35-9.15-17.82,7.57-31.92,22.18-36.8,41.17-3.75,14.61-2.31,31.73,6.52,44.32,3.89,5.55,13.08.26,9.15-5.34A37.61,37.61,0,0,1,834.35,640c4.66,4.5,11.95,5.74,19.11,6.21,1,.07,2,.16,3.08.26a260.68,260.68,0,0,1-48,58.82c-52.84,48.54-123.13,75.28-197.93,75.28S465.55,753.84,412.72,705.3c-52.67-48.39-81.67-112.67-81.67-181s29-132.62,81.67-181C465.55,294.74,535.85,268,610.64,268s145.09,26.73,197.93,75.28c52.66,48.38,81.67,112.66,81.67,181A237.27,237.27,0,0,1,880.08,593.14ZM937.72,703a57,57,0,0,1-1.06,16.51,11.58,11.58,0,0,1-3.37-2.21,4.71,4.71,0,0,0-6.84,6.49c5,5.29,16.34,8.64,28,8.64a58.84,58.84,0,0,0,6.77-.39c15-1.74,26.92-9.1,33.72-20.72a4.71,4.71,0,1,0-8.14-4.76,30.91,30.91,0,0,1-5.55,7,91.76,91.76,0,0,0-1.35-23.43,5.83,5.83,0,0,0,1.36.16c15.85,0,27.63,11.4,28.24,27.29.57,14.72-8.58,26.49-23.9,25.64-7-.38-7,10.5,0,10.89a32,32,0,0,0,19.74-5.19l.19.13c12.92,8.19,18.91,27.24,20.75,41.54,1.77,13.76,0,31.77-13.58,38.52a47.74,47.74,0,0,0-1.6-19.77c-2-7.12-13.13-4.09-11.11,3.07,2.52,8.89,2.86,18.73-3.56,26.1-4.37,5-10.61,7.68-17.06,8.77,2-5.19,2.29-10.89,1.75-16.88s-.61-19.56-8.23-21.51c-6.38-1.64-9.5,6.92-5.11,10.15q0,.19.06.45c.13,1.21.59,2.46.82,3.66a80.81,80.81,0,0,1,1,8.34c.48,6,.65,11-3.56,15.77s-13.18,6.88-19.06,3.3c-3-1.83-2.38-8.38-2.51-11.68-.13-3.59-.06-7.18-.14-10.77a5.45,5.45,0,0,0,.09-2l-.33-2.94c-.83-7.22-12.16-7.47-11.52,0s.31,15,.9,22.53c-16.81-4.06-27.27-18.57-29.9-35.88a64.84,64.84,0,0,1,1.82-27.32c3.29-11.57,9.93-19.83,19.61-26.79a5.91,5.91,0,0,0,2.07-2.57,48.65,48.65,0,0,0,10.4,1c-3.34-2.73-6.74-5-10-7.74-7.73-6.25-16-14.17-14.7-24.76,1.72-11.83,11.62-21.65,21.65-28.85A56.62,56.62,0,0,1,937.72,703Zm189.73-180.16c-3.1,4.2-8.44,7.62-14.1,11.24-11.53,7.36-25.86,16.52-22.59,36.26,1.18,7.11,4.12,13.48,7,19.64,1.54,3.32,3,6.46,4.12,9.62,4.71,13.15,2.05,25.23-7.31,33.15-16.15,13.64-42.14,9.22-60.72-1.21-15.5-8.71-30.32-16.81-44.65-24.65-29-15.88-56.43-30.88-86.52-49.14,1.11-8.34,1.79-16.78,2.07-25.27l89,25.11a7.57,7.57,0,0,0,2,.27,7.3,7.3,0,0,0,2-14.33l-92.91-26.21q-.22-7.9-.94-15.72a5.67,5.67,0,0,0,.71.06,7.23,7.23,0,0,0,2-.29l93.23-27.06a7.3,7.3,0,0,0-4.07-14l-93.23,27.06-.34.12q-1.57-10.69-4-21.19a7.29,7.29,0,0,0,4.55-1.46c40.89-30.64,72-52.54,118.25-85,17.74-12.43,44.67-20.36,61.87-8.43,8.66,6,11.75,15.76,8.72,27.46-.78,3-1.88,6.09-3,9.34-2.18,6.09-4.44,12.39-4.88,19.2-1.23,19.17,15,26.41,26.8,31.7,6.3,2.82,12.25,5.48,15.48,9.13C1138,482,1138.76,507.54,1127.45,522.87Z"
          style="fill:#090100"/>
    <path d="M468.08,356.94c-5.4-4.07-13.64-3.7-25.19,1.14-24.74,10.37-50.71,43.85-62.58,70.08-10.73,23.71-4.28,43.47,7.64,50.73A21.55,21.55,0,0,0,399.18,482c7.79,0,17-4.07,25.8-15.25,12.95-16.38,22.9-35.25,32.52-53.5,1.33-2.52,2.66-5,4-7.57,3.86-7.26,10.52-21.08,11.84-32.11C474.26,365.87,472.5,360.27,468.08,356.94Zm-6.63,15.23c-.79,6.64-4.63,16.82-10.52,27.91q-2,3.8-4,7.61c-9.36,17.77-19,36.14-31.31,51.65-7.48,9.46-15.48,12.94-21.41,9.33-9.35-5.7-8.85-22.56-3-35.58,14.11-31.18,39.71-57,56.3-64,5.85-2.45,9.29-3,11.21-3a4,4,0,0,1,2.14.39C461.19,366.74,461.93,368.23,461.45,372.17Z"
          style="fill:#090100"/>
    <path d="M380.59,487.7c-6.43-.17-12.75,2.89-17.32,8.31-8.85,10.51-9.33,27.1-1.1,37.77a21.17,21.17,0,0,0,16.42,8.66H379a22.3,22.3,0,0,0,16.9-8.32c8.85-10.51,9.33-27.1,1.09-37.77A21.15,21.15,0,0,0,380.59,487.7Zm6.16,38.71a10.25,10.25,0,0,1-7.74,4.06h-.17a9.44,9.44,0,0,1-7.19-4c-4.76-6.17-4.4-16.58.78-22.73h0a10.25,10.25,0,0,1,7.73-4.06h.18a9.46,9.46,0,0,1,7.19,4C392.29,509.85,391.93,520.26,386.75,526.41Z"
          style="fill:#090100"/>
    <g style="clip-path:url(#clip-path-2)">
        <path d="M1042.49,424.65c38-62.66,94.34-102.08,94.9-102.47L1124,309l-13.34-13.25c-2.54,1.75-62.72,43.68-104.8,112.4-25,40.79-38.38,82.58-39.8,124.21-1.77,52.11,15.28,103.76,50.7,153.51l36-17.54c-31.23-43.87-46.36-89.09-45-134.4C1008.9,497.51,1020.58,460.76,1042.49,424.65Z"
              style="fill:#ffe150"/>
        <path d="M1140.42,448.1c38.32-44.91,94.8-73.05,95.37-73.33l-13.31-9.55-13.28-9.57c-2.55,1.26-62.92,31.19-105.31,80.43-25.17,29.24-38.75,59.22-40.36,89.13-2,37.45,14.8,74.63,50,110.49l36-12.49c-31-31.62-46-64.17-44.36-96.73C1106.49,500.35,1118.34,474,1140.42,448.1Z"
              style="fill:#ffe150"/>
    </g>
    <g style="clip-path:url(#clip-path-3)">
        <path d="M280.43,450.83c36.13-63.77,91.23-104.87,91.78-105.28l-13.75-12.82-13.74-12.84c-2.49,1.83-61.38,45.55-101.38,115.49-23.74,41.53-35.87,83.7-36,125.35-.2,52.15,18.4,103.26,55.29,151.92L298,694c-32.54-42.91-49-87.65-49-133C249,524.67,259.61,487.58,280.43,450.83Z"
              style="fill:#ffe150"/>
    </g>
    <g style="clip-path:url(#clip-path-4)">
        <path d="M190.49,409.64c43.3-46.53,96.35-69.56,96.88-69.78l-7.9-14-7.88-14c-2.39,1-59,25.46-106.83,76.41-28.37,30.25-47.72,63.59-57.49,99.1C95,531.92,97.9,579.61,115.79,629.21l32.3-8.14c-15.77-43.74-18.44-85.53-7.93-124.22C148.6,465.8,165.53,436.46,190.49,409.64Z"
              style="fill:#ffe150"/>
    </g>
</svg>